<svg width="218" height="48" viewBox="0 0 218 48" fill="none" xmlns="http://www.w3.org/2000/svg">
<path d="M5.536 47.576C3.91467 47.576 2.67733 47.128 1.824 46.232C0.970667 45.336 0.544 44.0773 0.544 42.456V6.936C0.544 5.272 0.970667 4.01333 1.824 3.16C2.72 2.30666 3.97867 1.88 5.6 1.88H21.152C26.1867 1.88 30.0693 3.096 32.8 5.528C35.5307 7.96 36.896 11.352 36.896 15.704C36.896 18.52 36.2773 20.952 35.04 23C33.8027 25.048 32.0107 26.6267 29.664 27.736C27.36 28.8453 24.5227 29.4 21.152 29.4L21.664 28.312H24.288C26.08 28.312 27.6373 28.76 28.96 29.656C30.3253 30.5093 31.4987 31.832 32.48 33.624L36.448 40.984C37.0453 42.0507 37.3227 43.096 37.28 44.12C37.2373 45.144 36.8533 45.976 36.128 46.616C35.4027 47.256 34.336 47.576 32.928 47.576C31.52 47.576 30.368 47.2773 29.472 46.68C28.6187 46.0827 27.8507 45.1653 27.168 43.928L21.024 32.6C20.384 31.4053 19.5947 30.5947 18.656 30.168C17.76 29.7413 16.6507 29.528 15.328 29.528H10.464V42.456C10.464 44.0773 10.0373 45.336 9.184 46.232C8.37333 47.128 7.15733 47.576 5.536 47.576ZM10.464 22.36H19.36C22.0053 22.36 23.9893 21.8267 25.312 20.76C26.6773 19.6933 27.36 18.0933 27.36 15.96C27.36 13.8693 26.6773 12.2907 25.312 11.224C23.9893 10.1573 22.0053 9.624 19.36 9.624H10.464V22.36ZM49.1385 47.512C47.5598 47.512 46.3438 47.064 45.4905 46.168C44.6798 45.2293 44.2745 43.928 44.2745 42.264V20.376C44.2745 18.6693 44.6798 17.368 45.4905 16.472C46.3438 15.5333 47.5598 15.064 49.1385 15.064C50.6745 15.064 51.8478 15.5333 52.6585 16.472C53.5118 17.368 53.9385 18.6693 53.9385 20.376V42.264C53.9385 43.928 53.5332 45.2293 52.7225 46.168C51.9118 47.064 50.7172 47.512 49.1385 47.512ZM49.1385 9.816C47.3465 9.816 45.9598 9.41066 44.9785 8.6C44.0398 7.74667 43.5705 6.552 43.5705 5.016C43.5705 3.43733 44.0398 2.24267 44.9785 1.432C45.9598 0.578664 47.3465 0.151997 49.1385 0.151997C50.9305 0.151997 52.2958 0.578664 53.2345 1.432C54.1732 2.24267 54.6425 3.43733 54.6425 5.016C54.6425 6.552 54.1732 7.74667 53.2345 8.6C52.2958 9.41066 50.9305 9.816 49.1385 9.816ZM73.6235 47.704C70.8928 47.704 68.4822 47.0427 66.3915 45.72C64.3435 44.3973 62.7435 42.4987 61.5915 40.024C60.4395 37.5493 59.8635 34.6267 59.8635 31.256C59.8635 27.8853 60.4395 24.984 61.5915 22.552C62.7435 20.12 64.3435 18.2427 66.3915 16.92C68.4822 15.5973 70.8928 14.936 73.6235 14.936C76.0982 14.936 78.2742 15.5333 80.1515 16.728C82.0715 17.9227 83.3728 19.48 84.0555 21.4H83.3515V6.232C83.3515 4.61067 83.7568 3.39467 84.5675 2.584C85.3782 1.73066 86.5728 1.304 88.1515 1.304C89.6875 1.304 90.8822 1.73066 91.7355 2.584C92.5888 3.39467 93.0155 4.61067 93.0155 6.232V42.648C93.0155 44.2267 92.5888 45.4427 91.7355 46.296C90.9248 47.1493 89.7515 47.576 88.2155 47.576C86.6795 47.576 85.4848 47.1493 84.6315 46.296C83.8208 45.4427 83.4155 44.2267 83.4155 42.648V38.296L84.1195 40.792C83.5222 42.8827 82.2422 44.568 80.2795 45.848C78.3595 47.0853 76.1408 47.704 73.6235 47.704ZM76.5035 40.472C77.9115 40.472 79.1275 40.1307 80.1515 39.448C81.1755 38.7653 81.9862 37.7627 82.5835 36.44C83.1808 35.0747 83.4795 33.3467 83.4795 31.256C83.4795 28.1413 82.8395 25.8587 81.5595 24.408C80.2795 22.9147 78.5942 22.168 76.5035 22.168C75.1382 22.168 73.9222 22.488 72.8555 23.128C71.8315 23.768 71.0208 24.7707 70.4235 26.136C69.8688 27.4587 69.5915 29.1653 69.5915 31.256C69.5915 34.3707 70.2315 36.696 71.5115 38.232C72.7915 39.7253 74.4555 40.472 76.5035 40.472ZM116.782 47.704C113.07 47.704 109.87 47.0427 107.182 45.72C104.537 44.3547 102.489 42.456 101.038 40.024C99.63 37.5493 98.926 34.648 98.926 31.32C98.926 28.0773 99.6087 25.24 100.974 22.808C102.339 20.3333 104.238 18.4133 106.67 17.048C109.145 15.64 111.939 14.936 115.054 14.936C117.315 14.936 119.363 15.32 121.198 16.088C123.033 16.8133 124.611 17.88 125.934 19.288C127.257 20.6533 128.259 22.3387 128.942 24.344C129.625 26.3067 129.966 28.504 129.966 30.936C129.966 31.7467 129.71 32.3653 129.198 32.792C128.686 33.176 127.939 33.368 126.958 33.368H106.862V28.376H122.99L121.966 29.272C121.966 27.5227 121.71 26.072 121.198 24.92C120.686 23.7253 119.939 22.8293 118.958 22.232C118.019 21.6347 116.846 21.336 115.438 21.336C113.859 21.336 112.515 21.6987 111.406 22.424C110.297 23.1493 109.443 24.1947 108.846 25.56C108.249 26.9253 107.95 28.568 107.95 30.488V31C107.95 34.2427 108.697 36.632 110.19 38.168C111.726 39.704 113.987 40.472 116.974 40.472C117.998 40.472 119.171 40.344 120.494 40.088C121.817 39.832 123.054 39.4267 124.206 38.872C125.187 38.4027 126.062 38.2533 126.83 38.424C127.598 38.552 128.195 38.8933 128.622 39.448C129.049 40.0027 129.283 40.6427 129.326 41.368C129.411 42.0933 129.262 42.8187 128.878 43.544C128.494 44.2267 127.854 44.8027 126.958 45.272C125.507 46.0827 123.865 46.68 122.03 47.064C120.238 47.4907 118.489 47.704 116.782 47.704ZM157.347 47.704C152.91 47.704 149.006 46.744 145.635 44.824C142.307 42.8613 139.704 40.1307 137.827 36.632C135.992 33.1333 135.075 29.0587 135.075 24.408C135.075 20.8667 135.587 17.688 136.611 14.872C137.678 12.0133 139.192 9.58133 141.155 7.576C143.118 5.528 145.464 3.94933 148.195 2.84C150.968 1.73066 154.019 1.176 157.347 1.176C161.87 1.176 165.795 2.136 169.123 4.056C172.451 5.976 175.032 8.68533 176.867 12.184C178.744 15.64 179.683 19.6933 179.683 24.344C179.683 27.8853 179.15 31.0853 178.083 33.944C177.016 36.8027 175.502 39.256 173.539 41.304C171.576 43.352 169.23 44.9307 166.499 46.04C163.768 47.1493 160.718 47.704 157.347 47.704ZM157.347 39.256C159.864 39.256 161.998 38.68 163.747 37.528C165.539 36.3333 166.904 34.6267 167.843 32.408C168.824 30.1467 169.315 27.48 169.315 24.408C169.315 19.7147 168.27 16.088 166.179 13.528C164.088 10.9253 161.144 9.624 157.347 9.624C154.872 9.624 152.739 10.2 150.947 11.352C149.155 12.504 147.79 14.1893 146.851 16.408C145.912 18.6267 145.443 21.2933 145.443 24.408C145.443 29.0587 146.488 32.7067 148.579 35.352C150.67 37.9547 153.592 39.256 157.347 39.256ZM191.389 47.576C189.81 47.576 188.594 47.1493 187.741 46.296C186.93 45.4427 186.525 44.2267 186.525 42.648V19.928C186.525 18.3493 186.93 17.1547 187.741 16.344C188.594 15.4907 189.767 15.064 191.26 15.064C192.797 15.064 193.97 15.4907 194.781 16.344C195.591 17.1547 195.997 18.3493 195.997 19.928V23.576L195.293 21.464C196.274 19.3733 197.725 17.7733 199.645 16.664C201.607 15.512 203.826 14.936 206.301 14.936C208.818 14.936 210.887 15.4267 212.509 16.408C214.13 17.3467 215.346 18.7973 216.157 20.76C216.967 22.68 217.373 25.1333 217.373 28.12V42.648C217.373 44.2267 216.946 45.4427 216.093 46.296C215.282 47.1493 214.087 47.576 212.509 47.576C210.973 47.576 209.778 47.1493 208.925 46.296C208.114 45.4427 207.709 44.2267 207.709 42.648V28.568C207.709 26.392 207.303 24.8347 206.493 23.896C205.725 22.9147 204.53 22.424 202.909 22.424C200.861 22.424 199.218 23.064 197.981 24.344C196.786 25.624 196.189 27.3307 196.189 29.464V42.648C196.189 45.9333 194.589 47.576 191.389 47.576Z" fill="#1976D2"/>
</svg>
