<svg xmlns="http://www.w3.org/2000/svg" width="184" height="192" viewBox="0 0 184 192" fill="none">
  <g clip-path="url(#clip0_1110_1371)">
    <path d="M71.1774 192C110.488 192 142.355 186.386 142.355 179.461C142.355 172.536 110.488 166.922 71.1774 166.922C31.8672 166.922 0 172.536 0 179.461C0 186.386 31.8672 192 71.1774 192Z" fill="#3F3D56"/>
    <path d="M114.437 138.737C152.856 138.737 184 107.68 184 69.3685C184 31.0573 152.856 0 114.437 0C76.0191 0 44.875 31.0573 44.875 69.3685C44.875 107.68 76.0191 138.737 114.437 138.737Z" fill="#3F3D56"/>
    <path opacity="0.05" d="M114.438 126.634C146.153 126.634 171.864 100.996 171.864 69.3684C171.864 37.7414 146.153 12.1025 114.438 12.1025C82.7222 12.1025 57.0117 37.7414 57.0117 69.3684C57.0117 100.996 82.7222 126.634 114.438 126.634Z" fill="black"/>
    <path opacity="0.05" d="M114.438 116.303C140.431 116.303 161.503 95.2897 161.503 69.3685C161.503 43.4473 140.431 22.4341 114.438 22.4341C88.4441 22.4341 67.3721 43.4473 67.3721 69.3685C67.3721 95.2897 88.4441 116.303 114.438 116.303Z" fill="black"/>
    <path opacity="0.05" d="M114.438 103.02C133.074 103.02 148.183 87.9535 148.183 69.3685C148.183 50.7835 133.074 35.7174 114.438 35.7174C95.8006 35.7174 80.6924 50.7835 80.6924 69.3685C80.6924 87.9535 95.8006 103.02 114.438 103.02Z" fill="black"/>
    <path d="M45.4911 75.5765C45.4911 75.5765 40.0221 90.9278 42.4528 96.3816C44.8835 101.835 48.732 107.087 48.732 107.087C48.732 107.087 47.3141 76.5865 45.4911 75.5765Z" fill="#D0CDE1"/>
    <path opacity="0.1" d="M45.4911 75.5765C45.4911 75.5765 40.0221 90.9278 42.4528 96.3816C44.8835 101.835 48.732 107.087 48.732 107.087C48.732 107.087 47.3141 76.5865 45.4911 75.5765Z" fill="black"/>
    <path d="M49.34 111.127C49.34 111.127 48.9349 114.965 48.7324 115.167C48.5298 115.369 48.9349 115.773 48.7324 116.379C48.5298 116.985 48.3272 117.793 48.7324 117.995C49.1375 118.197 46.5042 135.972 46.5042 135.972C46.5042 135.972 40.0225 144.455 42.6557 157.787L43.4659 171.32C43.4659 171.32 49.7451 171.724 49.7451 169.502C49.7451 169.502 49.34 166.876 49.34 165.664C49.34 164.452 50.3528 164.452 49.7451 163.846C49.1375 163.241 49.1375 162.837 49.1375 162.837C49.1375 162.837 50.1502 162.029 49.9477 161.827C49.7451 161.625 51.7707 147.283 51.7707 147.283C51.7707 147.283 53.9988 145.061 53.9988 143.849V142.637C53.9988 142.637 55.0116 140.012 55.0116 139.81C55.0116 139.608 60.4806 127.286 60.4806 127.286L62.7087 136.174L65.1393 148.899C65.1393 148.899 66.3547 160.413 68.7853 164.856C68.7853 164.856 73.039 179.4 73.039 178.996C73.039 178.592 80.1284 177.582 79.9259 175.764C79.7233 173.946 75.6722 148.495 75.6722 148.495L76.685 110.723L49.34 111.127Z" fill="#2F2E41"/>
    <path d="M43.8712 170.31C43.8712 170.31 38.4022 181.016 42.0482 181.42C45.6942 181.824 47.1121 181.824 48.7326 180.208C49.6185 179.324 51.4125 178.139 52.8569 177.246C53.7127 176.725 54.4041 175.975 54.8517 175.08C55.2993 174.186 55.4851 173.184 55.3876 172.189C55.2808 171.2 54.9105 170.386 53.999 170.31C51.5683 170.108 48.7326 167.886 48.7326 167.886L43.8712 170.31Z" fill="#2F2E41"/>
    <path d="M74.0519 178.188C74.0519 178.188 68.5829 188.893 72.2289 189.297C75.8749 189.701 77.2928 189.701 78.9132 188.085C79.7991 187.202 81.5931 186.017 83.0375 185.124C83.8934 184.603 84.5847 183.852 85.0324 182.958C85.48 182.063 85.6657 181.061 85.5683 180.066C85.4615 179.078 85.0912 178.264 84.1797 178.188C81.749 177.986 78.9132 175.764 78.9132 175.764L74.0519 178.188Z" fill="#2F2E41"/>
    <path d="M68.2715 58.0572C72.974 58.0572 76.7862 54.2557 76.7862 49.5663C76.7862 44.8768 72.974 41.0753 68.2715 41.0753C63.569 41.0753 59.7568 44.8768 59.7568 49.5663C59.7568 54.2557 63.569 58.0572 68.2715 58.0572Z" fill="#FFB8B8"/>
    <path d="M62.7974 52.3561C62.7974 52.3561 56.7155 63.5156 56.229 63.5156C55.7424 63.5156 67.1764 67.1546 67.1764 67.1546C67.1764 67.1546 70.339 56.4802 70.8255 55.5099L62.7974 52.3561Z" fill="#FFB8B8"/>
    <path d="M72.1276 64.5681C72.1276 64.5681 59.9743 57.9024 58.7589 58.1044C57.5436 58.3063 44.5801 69.6178 44.7826 74.2636C44.9852 78.9094 46.6056 86.5851 46.6056 86.5851C46.6056 86.5851 47.2133 107.996 48.4286 108.198C49.6439 108.4 48.2261 112.036 48.6312 112.036C49.0363 112.036 76.9889 112.036 77.1915 111.43C77.394 110.824 72.1276 64.5681 72.1276 64.5681Z" fill="#D0CDE1"/>
    <path d="M78.9134 112.541C78.9134 112.541 82.762 124.256 79.5211 123.852C76.2802 123.448 74.8623 113.753 74.8623 113.753L78.9134 112.541Z" fill="#FFB8B8"/>
    <path d="M68.5824 63.861C68.5824 63.861 61.0879 65.4769 62.3032 75.5765C63.5186 85.676 65.7467 95.7755 65.7467 95.7755L73.2412 112.137L74.0514 115.167L79.5204 113.753L75.4693 90.3218C75.4693 90.3218 74.0514 65.2749 72.2284 64.467C71.0789 63.9782 69.8288 63.7705 68.5824 63.861Z" fill="#D0CDE1"/>
    <path opacity="0.1" d="M64.0254 95.4727L73.3431 112.036L65.4928 94.5828L64.0254 95.4727Z" fill="black"/>
    <path d="M76.7484 47.0661L76.7766 46.4172L78.0709 46.7385C78.0571 46.5302 77.998 46.3274 77.8979 46.144C77.7978 45.9607 77.6589 45.8012 77.491 45.6766L78.8697 45.5998C77.7128 43.9603 76.2346 42.5717 74.5245 41.5178C72.8144 40.4639 70.9079 39.7665 68.92 39.4679C65.9377 39.0368 62.617 39.6606 60.572 41.8677C59.5801 42.9382 58.9568 44.2997 58.5135 45.6886C57.6969 48.2466 57.5305 51.296 59.2332 53.3753C60.9638 55.4886 63.9865 55.9026 66.7099 56.1641C67.6682 56.2562 68.6724 56.3418 69.5604 55.971C69.6592 54.9553 69.5289 53.9305 69.1788 52.9715C69.0331 52.6747 68.9634 52.3464 68.9761 52.0161C69.0971 51.2082 70.1778 51.0046 70.9897 51.1138C71.8016 51.223 72.7778 51.39 73.3112 50.77C73.6787 50.3429 73.657 49.7211 73.7057 49.1604C73.8382 47.6342 76.7345 47.386 76.7484 47.0661Z" fill="#2F2E41"/>
    <path d="M128.973 181.186C134.452 181.186 138.894 176.757 138.894 171.293C138.894 165.829 134.452 161.4 128.973 161.4C123.494 161.4 119.052 165.829 119.052 171.293C119.052 176.757 123.494 181.186 128.973 181.186Z" fill="#1976D2"/>
    <path d="M12.4591 177.735C17.9383 177.735 22.3801 173.306 22.3801 167.842C22.3801 162.378 17.9383 157.948 12.4591 157.948C6.97987 157.948 2.53809 162.378 2.53809 167.842C2.53809 173.306 6.97987 177.735 12.4591 177.735Z" fill="#1976D2"/>
    <path d="M12.459 161.86C16.4091 161.86 19.6113 158.667 19.6113 154.727C19.6113 150.788 16.4091 147.595 12.459 147.595C8.50886 147.595 5.30664 150.788 5.30664 154.727C5.30664 158.667 8.50886 161.86 12.459 161.86Z" fill="#1976D2"/>
    <path d="M12.4587 148.745C15.262 148.745 17.5345 146.479 17.5345 143.684C17.5345 140.888 15.262 138.622 12.4587 138.622C9.65535 138.622 7.38281 140.888 7.38281 143.684C7.38281 146.479 9.65535 148.745 12.4587 148.745Z" fill="#1976D2"/>
  </g>
  <defs>
    <clipPath id="clip0_1110_1371">
      <rect width="184" height="192" fill="white"/>
    </clipPath>
  </defs>
</svg>
